<mxfile host="app.diagrams.net" modified="2024-06-24T02:50:04.755Z" agent="Mozilla/5.0 (Windows NT 10.0; Win64; x64) AppleWebKit/537.36 (KHTML, like Gecko) Chrome/126.0.0.0 Safari/537.36 Edg/126.0.0.0" version="24.6.2" etag="gEK8onlFaT7914QrNrI2" type="github">
  <diagram name="Page-1" id="dePzzRrWNIIpcqVm1SJM">
    <mxGraphModel>
      <root>
        <mxCell id="0" />
        <mxCell id="1" parent="0" />
      </root>
    </mxGraphModel>
  </diagram>
</mxfile>
